<svg viewBox="0 0 100 100" xmlns="http://www.w3.org/2000/svg">
  <!-- Hintergrund Circle -->
  <circle cx="50" cy="50" r="45" fill="#ff5a01" stroke="#2f53a7" stroke-width="3"/>
  
  <!-- Uhr Hintergrund -->
  <circle cx="50" cy="50" r="35" fill="white" opacity="0.95"/>
  
  <!-- Uhr Markierungen (12, 3, 6, 9) -->
  <g stroke="#2f53a7" stroke-width="2" fill="#2f53a7">
    <!-- 12 Uhr -->
    <rect x="49" y="18" width="2" height="8" rx="1"/>
    <!-- 3 Uhr -->
    <rect x="74" y="49" width="8" height="2" rx="1"/>
    <!-- 6 Uhr -->
    <rect x="49" y="74" width="2" height="8" rx="1"/>
    <!-- 9 Uhr -->
    <rect x="18" y="49" width="8" height="2" rx="1"/>
  </g>
  
  <!-- Kleinere Stundenmarkierungen -->
  <g stroke="#ff5a01" stroke-width="1.5" opacity="0.7">
    <!-- 1 Uhr -->
    <line x1="65.5" y1="22.5" x2="64" y2="25"/>
    <!-- 2 Uhr -->
    <line x1="77.5" y1="34.5" x2="75" y2="36"/>
    <!-- 4 Uhr -->
    <line x1="77.5" y1="65.5" x2="75" y2="64"/>
    <!-- 5 Uhr -->
    <line x1="65.5" y1="77.5" x2="64" y2="75"/>
    <!-- 7 Uhr -->
    <line x1="34.5" y1="77.5" x2="36" y2="75"/>
    <!-- 8 Uhr -->
    <line x1="22.5" y1="65.5" x2="25" y2="64"/>
    <!-- 10 Uhr -->
    <line x1="22.5" y1="34.5" x2="25" y2="36"/>
    <!-- 11 Uhr -->
    <line x1="34.5" y1="22.5" x2="36" y2="25"/>
  </g>
  
  <!-- Zeiger -->
  <g fill="#2f53a7">
    <!-- Stundenzeiger (zeigt auf 8) -->
    <line x1="50" y1="50" x2="40" y2="42" stroke="#2f53a7" stroke-width="4" stroke-linecap="round"/>
    <!-- Minutenzeiger (zeigt auf 4 - 20 Min) -->
    <line x1="50" y1="50" x2="68" y2="60" stroke="#ff5a01" stroke-width="3" stroke-linecap="round"/>
  </g>
  
  <!-- Mittelpunkt -->
  <circle cx="50" cy="50" r="3" fill="#2f53a7"/>
  
  <!-- Kleine Akzente -->
  <g opacity="0.8">
    <!-- Plus-Symbol (für Mehrstunden) -->
    <g transform="translate(75, 25)">
      <circle r="8" fill="white" stroke="#ff5a01" stroke-width="1.5"/>
      <line x1="-4" y1="0" x2="4" y2="0" stroke="#ff5a01" stroke-width="2"/>
      <line x1="0" y1="-4" x2="0" y2="4" stroke="#ff5a01" stroke-width="2"/>
    </g>
    
    <!-- Pause-Symbol -->
    <g transform="translate(25, 75)">
      <circle r="8" fill="white" stroke="#2f53a7" stroke-width="1.5"/>
      <rect x="-3" y="-4" width="2" height="8" fill="#2f53a7" rx="1"/>
      <rect x="1" y="-4" width="2" height="8" fill="#2f53a7" rx="1"/>
    </g>
  </g>
</svg>